<svg width="408" xmlns="http://www.w3.org/2000/svg" height="408" fill="none"><defs><clipPath id="a" class="frame-clip frame-clip-def"><rect rx="0" ry="0" width="408" height="408" transform="matrix(1.000000, 0.000000, 0.000000, 1.000000, 0.000000, 0.000000)"/></clipPath></defs><g clip-path="url(#a)"><g class="fills"><rect width="408" height="408" class="frame-background" transform="matrix(1.000000, 0.000000, 0.000000, 1.000000, 0.000000, 0.000000)" style="fill: rgb(255, 255, 255); fill-opacity: 0;" ry="0" rx="0" fill="none"/></g><g class="frame-children"><rect rx="0" ry="0" x="31" y="77.948" transform="matrix(1.000000, 0.000000, 0.000000, 1.000000, 0.000000, 0.000000)" width="346" height="252" style="fill: rgb(222, 230, 225); fill-opacity: 1;" class="fills"/><path d="M31.000,77.948L134.000,77.948L31.000,180.948L31.000,77.948Z" style="fill: rgb(39, 89, 55); fill-opacity: 1;" class="fills"/><path d="M377.000,77.948L274.000,77.948L377.000,180.948L377.000,77.948Z" style="fill: rgb(39, 89, 55); fill-opacity: 1;" class="fills"/><path d="M31.000,329.948L134.000,329.948L31.000,226.948L31.000,329.948Z" style="fill: rgb(39, 89, 55); fill-opacity: 1;" class="fills"/><path d="M377.000,329.948L274.000,329.948L377.000,226.948L377.000,329.948Z" style="fill: rgb(39, 89, 55); fill-opacity: 1;" class="fills"/><g class="fills"><rect rx="0" ry="0" x="102.05" y="130.397" width="156" height="218" transform="matrix(0.707107, -0.707107, 0.707107, 0.707107, -116.543660, 197.432253)" class="frame-background"/></g><g class="frame-children"><rect rx="0" ry="0" x="102.05" y="130.397" transform="matrix(0.707107, -0.707107, 0.707107, 0.707107, -116.543660, 197.432253)" width="156" height="218" style="fill: rgb(239, 242, 245); fill-opacity: 1;" class="fills"/><rect rx="0" ry="0" x="105.4" y="159.247" transform="matrix(0.707107, -0.707107, 0.707107, 0.707107, -87.693678, 127.782235)" width="10" height="21" style="fill: rgb(21, 66, 115); fill-opacity: 1;" class="fills"/><rect rx="0" ry="0" x="115.76" y="150.216" transform="matrix(0.707107, -0.707107, 0.707107, 0.707107, -68.834028, 137.251012)" width="31" height="3" style="fill: rgb(189, 203, 215); fill-opacity: 1;" class="fills"/><rect rx="0" ry="0" x="120.553" y="157.787" transform="matrix(0.707107, -0.707107, 0.707107, 0.707107, -74.041135, 138.822080)" width="20" height="2" style="fill: rgb(189, 203, 215); fill-opacity: 1;" class="fills"/><rect rx="0" ry="0" x="160.858" y="154.251" transform="matrix(0.707107, -0.707107, 0.707107, 0.707107, -59.736048, 166.286546)" width="20" height="2" style="fill: rgb(189, 203, 215); fill-opacity: 1;" class="fills"/><rect rx="0" ry="0" x="92.268" y="222.84" transform="matrix(0.707107, -0.707107, 0.707107, 0.707107, -128.325406, 137.875904)" width="20" height="2" style="fill: rgb(189, 203, 215); fill-opacity: 1;" class="fills"/><rect rx="0" ry="0" x="108.406" y="231.801" transform="matrix(0.707107, -0.707107, 0.707107, 0.707107, -127.687581, 161.336059)" width="45" height="6" style="fill: rgb(189, 203, 215); fill-opacity: 1;" class="fills"/><rect rx="0" ry="0" x="129.745" y="260.317" transform="matrix(0.707107, -0.707107, 0.707107, 0.707107, -143.848747, 175.352563)" width="20" height="2" style="fill: rgb(189, 203, 215); fill-opacity: 1;" class="fills"/><rect rx="0" ry="0" x="158.029" y="288.601" transform="matrix(0.707107, -0.707107, 0.707107, 0.707107, -155.564475, 203.636835)" width="20" height="2" style="fill: rgb(189, 203, 215); fill-opacity: 1;" class="fills"/><rect rx="0" ry="0" x="181.364" y="311.936" transform="matrix(0.707107, -0.707107, 0.707107, 0.707107, -165.229952, 226.971358)" width="20" height="2" style="fill: rgb(189, 203, 215); fill-opacity: 1;" class="fills"/><rect rx="0" ry="0" x="164.888" y="159.981" transform="matrix(0.707107, -0.707107, 0.707107, 0.707107, -63.455718, 168.266624)" width="13" height="1.5" style="fill: rgb(189, 203, 215); fill-opacity: 1;" class="fills"/><rect rx="0" ry="0" x="167.143" y="161.926" transform="matrix(0.707107, -0.707107, 0.707107, 0.707107, -63.950514, 170.961167)" width="14.5" height="1.5" style="fill: rgb(189, 203, 215); fill-opacity: 1;" class="fills"/><rect rx="0" ry="0" x="96.299" y="228.57" transform="matrix(0.707107, -0.707107, 0.707107, 0.707107, -132.045076, 139.855981)" width="13" height="1.5" style="fill: rgb(189, 203, 215); fill-opacity: 1;" class="fills"/><rect rx="0" ry="0" x="170.497" y="166.522" transform="matrix(0.707107, -0.707107, 0.707107, 0.707107, -67.096961, 172.557361)" width="8.5" height="1.5" style="fill: rgb(189, 203, 215); fill-opacity: 1;" class="fills"/><rect rx="0" ry="0" x="174.745" y="169.277" transform="matrix(0.707107, -0.707107, 0.707107, 0.707107, -67.099116, 178.562565)" width="14.5" height="2" style="fill: rgb(189, 203, 215); fill-opacity: 1;" class="fills"/><rect rx="0" ry="0" x="98.554" y="230.515" transform="matrix(0.707107, -0.707107, 0.707107, 0.707107, -132.539872, 142.550525)" width="14.5" height="1.5" style="fill: rgb(189, 203, 215); fill-opacity: 1;" class="fills"/><rect rx="0" ry="0" x="133.368" y="238.064" transform="matrix(0.707107, -0.707107, 0.707107, 0.707107, -125.725641, 198.599515)" width="87" height="26" style="fill: rgb(184, 199, 214); fill-opacity: 1;" class="fills"/><rect rx="0" ry="0" x="163.945" y="265.399" transform="matrix(0.707107, -0.707107, 0.707107, 0.707107, -134.148476, 224.934039)" width="81" height="18" style="fill: rgb(184, 199, 214); fill-opacity: 1;" class="fills"/><rect rx="0" ry="0" x="182.158" y="290.854" transform="matrix(0.707107, -0.707107, 0.707107, 0.707107, -145.935273, 247.389883)" width="87" height="18" style="fill: rgb(184, 199, 214); fill-opacity: 1;" class="fills"/><rect rx="0" ry="0" x="165.822" y="299.415" transform="matrix(0.707107, -0.707107, 0.707107, 0.707107, -163.771582, 206.450543)" width="3" height="3" style="fill: rgb(184, 199, 214); fill-opacity: 1;" class="fills"/><rect rx="0" ry="0" x="170.065" y="303.658" transform="matrix(0.707107, -0.707107, 0.707107, 0.707107, -165.528942, 210.693184)" width="3" height="3" style="fill: rgb(184, 199, 214); fill-opacity: 1;" class="fills"/><rect rx="0" ry="0" x="174.307" y="307.9" transform="matrix(0.707107, -0.707107, 0.707107, 0.707107, -167.286301, 214.935824)" width="3" height="3" style="fill: rgb(184, 199, 214); fill-opacity: 1;" class="fills"/></g><path d="M178.268,152.868L285.597,45.539L298.325,58.267L190.996,165.596L190.019,158.640L185.570,154.191L178.268,152.868Z" style="fill: rgb(255, 182, 18); fill-opacity: 1;" class="fills"/><path d="M178.268,152.868L285.597,45.539L290.000,50.000L185.570,154.191L178.268,152.868Z" style="fill: rgb(253, 211, 112); fill-opacity: 1;" class="fills"/><path d="M178.268,152.868L175.667,168.803L190.996,165.596L190.046,158.667L185.500,154.271L178.268,152.868Z" style="fill: rgb(254, 244, 219); fill-opacity: 1;" class="fills"/><defs><filter id="b" x="0" y="0" width="1" height="1" filterUnits="objectBoundingBox" color-interpolation-filters="sRGB"><feFlood flood-opacity="0" result="BackgroundImageFix"/><feBlend in="SourceGraphic" in2="BackgroundImageFix" result="shape"/><feColorMatrix in="SourceAlpha" values="0 0 0 0 0 0 0 0 0 0 0 0 0 0 0 0 0 0 127 0" result="hardAlpha"/><feOffset dx="-4" dy="-4"/><feGaussianBlur stdDeviation="2"/><feComposite in2="hardAlpha" operator="arithmetic" k2="-1" k3="1"/><feColorMatrix values="0 0 0 0 0 0 0 0 0 0 0 0 0 0 0 0 0 0 0.2 0"/><feBlend in2="shape" result="filter_16852842-067b-80d7-8004-fc910543154e"/></filter></defs><path d="M176.139,164.690L175.482,168.310L178.967,167.518L178.781,165.953L177.771,164.977L176.139,164.690Z" filter="url(#b)" style="fill: rgb(21, 66, 115); fill-opacity: 1;" class="fills"/><rect rx="0" ry="0" x="290.042" y="38.269" transform="matrix(0.707107, -0.707107, 0.707107, 0.707107, 53.446445, 223.569087)" width="13.107" height="18" style="fill: rgb(223, 96, 86); fill-opacity: 1;" class="fills"/></g></g></svg>